<svg xmlns="http://www.w3.org/2000/svg" width="30" height="30" viewBox="0 0 512.001 512.001" class="svg-ndc">
	<g>
		<g xmlns="http://www.w3.org/2000/svg">
			<path d="m120 241.001h272v30h-272z" fill="#000000" data-original="#000000" class=""></path>
			<path d="m120 301.251h272v30h-272z" fill="#000000" data-original="#000000" class=""></path>
			<path d="m120 361.501h186v30h-186z" fill="#000000" data-original="#000000" class=""></path>
			<path d="m120 421.751h186v30h-186z" fill="#000000" data-original="#000000" class=""></path>
			<path d="m44.51 0v512.001h337.129l85.841-85.84.011-426.161zm30 30h362.98l-.01 355.324h-96.657v96.677h-266.313zm296.314 450.391v-65.066h65.066z" fill="#000000" data-original="#000000" class=""></path>
			<path d="m352.877 204.212h30v-105.5h30.334v-30h-90.667v30h30.333z" fill="#000000" data-original="#000000" class=""></path>
			<path d="m249.664 158.542h30.251v45.25h30v-90.375c0-24.882-20.243-45.125-45.125-45.125-24.883 0-45.126 20.243-45.126 45.125v90.375h30zm0-45.124c0-8.34 6.785-15.125 15.126-15.125 8.34 0 15.125 6.785 15.125 15.125v15.125h-30.251z" fill="#000000" data-original="#000000"></path>
			<path d="m175.8 203.792 33.235-135.522h-30.889l-24.236 98.831-24.237-98.831-30.883.022 33.229 135.5z" fill="#000000" data-original="#000000" class=""></path>
		</g>
	</g>
</svg>