<svg xmlns="http://www.w3.org/2000/svg" width="30" height="30" viewBox="0 0 30 30" class="svg-product">
	<style type="text/css">
		.st0{stroke:#000000;stroke-width:0.4;stroke-miterlimit:10;}
	</style>
	<g>
		<path class="st0" d="M26,19.1c0.2,0.1,0.5,0,0.6-0.3l2.5-7.3c0.6-0.1,1-0.6,1-1.1V9.3c0-0.6-0.5-1.2-1.2-1.2h-1c0,0,0,0,0,0
			l-3.7-4.3c-0.3-0.4-0.9-0.5-1.3-0.3l-0.7,0.3c0-0.1-0.1-0.1-0.1-0.2l-2.6-2.6c-0.2-0.2-0.4-0.3-0.7-0.3H13c-0.4,0-0.7,0.2-0.9,0.6
			l-0.6,1.4H9.6C9.3,2.8,9.1,2.8,9,3L7.8,4.2L7.2,3.9C6.8,3.7,6.3,3.8,6,4.1l-3.4,4c0,0,0,0,0,0H1.2C0.5,8.2,0,8.7,0,9.3v1.1
			c0,0.6,0.4,1.1,1,1.1l4.3,12.6c0.2,0.7,0.8,1.1,1.5,1.1h0.1c0,0.1,0,0.1,0,0.2c0,1.2,0.5,2.2,1.4,2.9H0.4c-0.2,0-0.4,0.2-0.4,0.4
			s0.2,0.4,0.4,0.4h29.1c0.2,0,0.4-0.2,0.4-0.4s-0.2-0.4-0.4-0.4h-7.7c0.8-0.7,1.4-1.7,1.4-2.9c0-0.1,0-0.1,0-0.2h0.1
			c0.7,0,1.3-0.4,1.5-1.1l1.3-3.9c0.1-0.2,0-0.5-0.3-0.6c-0.2-0.1-0.5,0-0.6,0.3l-1.3,3.9c-0.1,0.3-0.4,0.5-0.7,0.5H23
			c-0.5-1.5-1.9-2.6-3.6-2.6s-3.1,1.1-3.6,2.6h-1.8c-0.5-1.5-1.9-2.6-3.6-2.6S7.5,22.9,7,24.4H6.8c-0.3,0-0.6-0.2-0.7-0.5L1.9,11.5
			h8.6v4c0,0.4,0.3,0.8,0.7,1c0.1,0,0.2,0.1,0.2,0.1h0.1c0.2,0,0.4-0.2,0.4-0.4c0-0.2-0.2-0.4-0.4-0.4c-0.1,0-0.2-0.1-0.2-0.2v-4h7.2
			v4c0,0.1-0.1,0.2-0.2,0.2h-5.3c-0.2,0-0.4,0.2-0.4,0.4c0,0.2,0.2,0.4,0.4,0.4h5.3c0.6,0,1-0.5,1-1v-4h8.6l-2.4,7
			C25.7,18.7,25.8,19,26,19.1z M19.5,22.6c1.6,0,2.8,1.3,2.8,2.8s-1.3,2.8-2.8,2.8c-1.6,0-2.8-1.3-2.8-2.8S17.9,22.6,19.5,22.6z
			 M14.3,25.3h1.5c0,0.1,0,0.1,0,0.2c0,1.2,0.5,2.2,1.4,2.9h-4.2c0.8-0.7,1.4-1.7,1.4-2.9C14.3,25.4,14.3,25.3,14.3,25.3z M10.5,22.6
			c1.6,0,2.8,1.3,2.8,2.8s-1.3,2.8-2.8,2.8c-1.6,0-2.8-1.3-2.8-2.8S9,22.6,10.5,22.6z M23.2,4.3c0.1,0,0.2,0,0.3,0.1l3.3,3.8h-5.4
			c0,0,0,0-0.1-0.1l-1.6-1.6c0,0,0,0,0,0L19.7,6c0-0.1,0.1-0.1,0.1-0.1L23.2,4.3z M20,8.2h-6.7V6.4l3.1-1.5l2.2,1.9L20,8.2z
			 M12.9,1.7C12.9,1.7,12.9,1.6,12.9,1.7l5.8-0.1c0,0,0.1,0,0.1,0l2.5,2.5v0.1l-1.7,0.8c-0.3,0.1-0.5,0.4-0.6,0.7l0,0l-2-1.8
			C16.7,4,16.5,3.9,16.4,4l-1.1,0.5l-0.6-1.3c-0.1-0.3-0.4-0.5-0.8-0.5h-1.5L12.9,1.7z M13.9,3.6l0.6,1.3l-1.7,0.8
			c-0.2,0.1-0.2,0.2-0.2,0.4v2h-1.1L10.8,6c-0.1-0.3-0.3-0.5-0.6-0.7L8.6,4.6l0.9-0.9L13.9,3.6L13.9,3.6z M6.6,4.7
			c0-0.1,0.1-0.1,0.2,0l3,1.5c0,0,0.1,0.1,0.1,0.1l0.5,1.9H3.7L6.6,4.7z M1.3,10.7H1.2c-0.2,0-0.3-0.1-0.3-0.3V9.3C0.9,9.2,1,9,1.2,9
			h27.7c0.2,0,0.3,0.1,0.3,0.3v1.1c0,0.2-0.1,0.3-0.3,0.3h-0.1H1.3z"/>
		<path class="st0" d="M13.6,14.1h2.8c0.2,0,0.4-0.2,0.4-0.4c0-0.2-0.2-0.4-0.4-0.4h-2.8c-0.2,0-0.4,0.2-0.4,0.4
			C13.2,13.9,13.4,14.1,13.6,14.1z"/>
	</g>
</svg>