<svg xmlns="http://www.w3.org/2000/svg" width="30" height="30" viewBox="0 0 512 512" class="svg-service">
	<g>
		<g xmlns="http://www.w3.org/2000/svg">
			<path d="m382.765 305.003-77.277-77.277 112.873-112.873h36.213c4.721.001 9.167-2.222 12-6l42.426-56.569c4.479-5.972 3.885-14.328-1.393-19.607l-28.285-28.284c-5.278-5.278-13.635-5.872-19.606-1.393l-56.569 42.426c-3.777 2.833-6 7.279-6 12v36.213l-112.873 112.874-77.277-77.277c8.497-35.435-1.759-72.47-27.829-98.54-31.352-31.352-79.349-39.569-119.433-20.446h-.001c-9.346 4.459-11.47 16.822-4.148 24.144l49.335 49.335-21.213 21.213-49.334-49.335c-7.322-7.322-19.686-5.198-24.144 4.148-19.123 40.085-10.906 88.081 20.446 119.433 26.071 26.071 63.105 36.327 98.54 27.83l77.277 77.277-22.224 22.224-3.536-3.536c-17.545-17.545-46.094-17.546-63.64 0l-103.934 103.934c-17.546 17.546-17.545 46.094 0 63.64l28.284 28.284c17.545 17.545 46.094 17.546 63.64 0l103.934-103.934c17.546-17.546 17.545-46.094 0-63.64l-3.536-3.536 22.224-22.224 77.277 77.277c-8.497 35.435 1.759 72.47 27.829 98.54 31.352 31.352 79.349 39.569 119.433 20.446h.001c9.346-4.459 11.47-16.822 4.148-24.144l-49.335-49.335 21.213-21.213 49.335 49.335c7.322 7.322 19.686 5.198 24.144-4.148 19.123-40.085 10.906-88.081-20.446-119.433-26.07-26.07-63.104-36.325-98.539-27.829zm44.382-240.077 40.161-30.12 9.886 9.886-30.12 40.161h-19.927zm-343.277 412.701c-5.849 5.849-15.365 5.849-21.213 0l-28.284-28.284c-5.849-5.848-5.849-15.364 0-21.213l10.607-10.607 49.497 49.498zm103.934-103.934-72.115 72.114-49.497-49.497 72.115-72.115c5.849-5.849 15.365-5.849 21.213 0l28.284 28.284c5.849 5.849 5.849 15.365 0 21.214zm293.429 43.921-42.356-42.356c-5.858-5.858-15.355-5.858-21.213 0l-42.427 42.427c-5.858 5.858-5.858 15.355 0 21.213l42.356 42.356c-22.936 3.255-46.651-4.224-63.569-21.142-20.219-20.22-27.107-49.696-17.976-76.926v-.001c1.809-5.396.409-11.351-3.615-15.375l-188.243-188.244c-4.024-4.024-9.98-5.425-15.376-3.615-27.229 9.132-56.705 2.244-76.925-17.976-16.918-16.918-24.397-40.632-21.142-63.569l42.356 42.356c5.858 5.858 15.355 5.858 21.213 0l42.427-42.427c5.858-5.858 5.858-15.355 0-21.213l-42.357-42.355c22.936-3.255 46.651 4.224 63.569 21.142 20.22 20.22 27.107 49.696 17.976 76.926v.001c-1.809 5.396-.409 11.351 3.615 15.375l188.244 188.244c4.024 4.024 9.979 5.424 15.375 3.615h.001c27.229-9.131 56.706-2.244 76.925 17.976 16.918 16.917 24.396 40.631 21.142 63.568z" fill="#000000" data-original="#000000" class=""></path>
		</g>
	</g>
</svg>